<?xml version="1.0" standalone="no"?>
<!DOCTYPE svg PUBLIC "-//W3C//DTD SVG 20010904//EN"
 "http://www.w3.org/TR/2001/REC-SVG-20010904/DTD/svg10.dtd">
<svg version="1.0" xmlns="http://www.w3.org/2000/svg"
 width="169.000000pt" height="185.000000pt" viewBox="0 0 169.000000 185.000000"
 preserveAspectRatio="xMidYMid meet">

<g transform="translate(0.000000,185.000000) scale(0.100000,-0.100000)"
fill="#000000" stroke="none">
<path d="M830 1740 c0 -5 -11 -10 -25 -10 -14 0 -28 -7 -31 -15 -4 -8 -12 -15
-20 -15 -8 0 -14 -7 -14 -15 0 -8 -9 -15 -20 -15 -11 0 -20 -4 -20 -10 0 -5
-7 -10 -15 -10 -8 0 -15 5 -15 10 0 6 -25 10 -55 10 -30 0 -55 -4 -55 -10 0
-5 -5 -10 -11 -10 -12 0 -39 -25 -39 -36 0 -3 -16 -21 -35 -40 -19 -18 -35
-37 -35 -43 0 -6 -5 -11 -11 -11 -17 0 -39 -27 -39 -48 0 -11 -11 -28 -25 -38
-22 -16 -25 -26 -25 -81 0 -39 4 -63 13 -67 9 -5 10 -7 0 -12 -7 -3 -13 -12
-13 -20 0 -8 -7 -14 -15 -14 -11 0 -15 -12 -15 -45 0 -33 4 -45 15 -45 11 0
15 -12 15 -50 0 -27 4 -50 9 -50 6 0 11 -17 13 -37 2 -30 8 -38 28 -43 19 -5
24 -12 22 -30 -1 -13 6 -31 17 -42 26 -23 31 -23 31 2 0 11 -4 20 -10 20 -5 0
-10 16 -10 35 0 20 -6 37 -16 43 -22 13 -16 86 9 90 14 3 17 -1 12 -20 -4 -16
1 -33 14 -50 12 -14 21 -35 21 -46 0 -12 5 -24 10 -27 6 -3 10 -19 10 -36 0
-22 -5 -29 -20 -29 -11 0 -20 -7 -20 -15 0 -8 -9 -15 -20 -15 -11 0 -23 -7
-27 -16 -6 -17 28 -54 52 -54 18 0 20 -27 3 -32 -15 -5 13 -38 31 -38 6 0 11
-4 11 -10 0 -5 19 -10 43 -10 62 0 97 -33 97 -91 0 -33 -5 -48 -20 -59 -11 -8
-20 -25 -20 -37 0 -13 -6 -23 -13 -23 -8 0 -20 -11 -27 -25 -7 -14 -21 -25
-29 -25 -9 0 -23 -9 -31 -20 -8 -11 -22 -20 -31 -20 -9 0 -19 -7 -23 -15 -3
-8 -15 -15 -26 -15 -11 0 -20 -4 -20 -10 0 -5 -15 -10 -34 -10 -25 0 -35 -5
-39 -20 -4 -15 -14 -20 -41 -20 -20 0 -36 -4 -36 -10 0 -5 -8 -10 -18 -10 -9
0 -31 -16 -47 -36 -17 -20 -36 -43 -43 -50 -6 -7 -12 -24 -12 -38 l0 -25 218
-3 c119 -2 234 -1 255 1 33 3 37 6 37 32 0 16 -4 29 -10 29 -6 0 -10 62 -10
166 0 167 6 194 39 194 6 0 11 5 11 10 0 6 4 10 10 10 5 0 9 -3 9 -7 -4 -22 3
-25 17 -7 8 10 12 13 8 5 -4 -9 0 -19 11 -28 11 -7 15 -13 10 -13 -5 0 1 -9
13 -20 12 -11 26 -20 32 -20 6 0 13 -7 16 -15 4 -9 19 -15 38 -15 40 0 107 57
109 93 2 19 5 23 15 15 11 -9 11 -13 0 -19 -21 -14 9 -11 35 2 16 9 22 9 25 0
2 -6 10 -11 18 -11 12 0 14 -34 14 -200 l0 -200 33 -1 c17 0 122 0 232 0 110
1 203 1 208 1 14 0 7 48 -8 54 -8 3 -15 15 -15 26 0 11 -4 20 -10 20 -5 0 -10
5 -10 11 0 16 -31 38 -52 39 -10 0 -18 7 -18 15 0 9 -9 15 -24 15 -13 0 -26 7
-30 15 -3 9 -19 15 -41 15 -19 0 -35 5 -35 10 0 6 -9 10 -20 10 -11 0 -23 7
-26 15 -4 8 -15 15 -25 15 -10 0 -19 5 -19 10 0 6 -9 10 -20 10 -11 0 -20 5
-20 10 0 6 -4 10 -10 10 -16 0 -70 58 -70 75 0 19 -23 45 -39 45 -6 0 -11 20
-11 45 0 33 4 45 15 45 8 0 15 5 15 11 0 24 30 39 80 39 31 0 57 6 66 14 16
17 19 36 4 36 -5 0 -10 9 -10 20 0 14 7 20 21 20 26 0 49 23 49 49 0 14 -6 21
-20 21 -11 0 -20 5 -20 10 0 6 5 10 10 10 6 0 10 7 10 15 0 8 5 15 10 15 6 0
10 9 10 21 0 12 8 23 20 26 17 4 20 14 20 54 0 27 5 49 10 49 6 0 10 11 10 25
0 16 6 25 15 25 13 0 15 21 15 125 0 104 -2 125 -15 125 -8 0 -15 7 -15 15 0
8 -7 15 -15 15 -11 0 -15 12 -15 45 0 37 -5 51 -27 71 -19 17 -24 27 -15 31 8
3 12 27 12 69 0 56 -2 64 -19 64 -10 0 -21 -7 -25 -15 -6 -17 -86 -22 -86 -5
0 6 -9 10 -21 10 -19 0 -79 55 -79 72 0 5 -11 8 -25 8 -14 0 -25 5 -25 10 0 6
-33 10 -80 10 -47 0 -80 -4 -80 -10z m-110 -375 c0 -14 4 -25 9 -25 5 0 24
-16 42 -35 27 -28 41 -35 71 -35 27 0 38 -4 38 -15 0 -9 10 -15 28 -16 16 -1
20 -3 10 -6 -12 -3 -18 -14 -18 -34 0 -16 -4 -29 -10 -29 -5 0 -10 -12 -10
-26 0 -23 -3 -25 -37 -22 -31 2 -39 7 -41 26 -2 12 -10 22 -18 22 -11 0 -13 6
-9 19 4 13 -1 27 -14 40 -17 17 -34 21 -92 21 l-71 0 41 42 c23 22 41 47 41
55 0 15 21 42 33 43 4 0 7 -11 7 -25z m160 -25 c0 -5 -4 -10 -10 -10 -5 0 -10
5 -10 10 0 6 5 10 10 10 6 0 10 -4 10 -10z m37 -26 c-3 -3 -12 -4 -19 -1 -8 3
-5 6 6 6 11 1 17 -2 13 -5z m75 -36 c14 -23 9 -28 -27 -28 -27 0 -35 4 -35 18
0 21 49 29 62 10z m180 -60 c10 -12 17 -26 15 -32 -5 -15 -177 -20 -191 -6 -7
7 14 10 67 10 69 0 77 2 77 19 0 11 -8 22 -17 24 -13 3 -11 5 6 6 13 0 32 -9
43 -21z m-622 -18 c0 -6 29 -10 66 -10 41 0 63 -4 59 -10 -8 -12 -135 -13
-154 -1 -7 5 -10 14 -7 20 9 14 36 15 36 1z m175 -58 c17 -2 18 -4 5 -12 -8
-5 -45 -10 -82 -10 -52 0 -68 -3 -68 -14 0 -11 9 -13 35 -9 33 5 35 4 35 -21
0 -23 4 -26 35 -26 31 0 35 3 35 25 0 20 5 25 25 25 22 0 25 -4 25 -36 0 -54
-17 -64 -105 -64 -95 0 -105 8 -105 87 l0 58 73 -1 c39 0 81 -1 92 -2z m363 2
l52 -7 0 -51 c0 -72 -18 -86 -115 -86 -43 0 -75 4 -75 10 0 6 -12 10 -26 10
-25 0 -26 2 -20 38 3 20 6 47 6 60 0 16 6 22 21 22 11 0 17 -5 14 -10 -4 -6
-12 -7 -18 -3 -7 4 -6 0 2 -10 7 -9 19 -17 27 -17 7 0 14 -12 16 -27 2 -22 8
-26 35 -27 27 -1 33 3 35 24 2 17 10 26 26 28 44 6 21 22 -32 22 -52 0 -81 12
-54 23 19 8 46 8 106 1z m-558 -13 c0 -6 -4 -13 -10 -16 -5 -3 -10 1 -10 9 0
9 5 16 10 16 6 0 10 -4 10 -9z m650 -13 c0 -18 -2 -20 -9 -8 -6 8 -7 18 -5 22
9 14 14 9 14 -14z m-302 -60 c2 -21 7 -38 13 -38 5 0 9 -5 9 -11 0 -23 30 -38
88 -45 77 -8 152 2 152 22 0 8 5 14 10 14 6 0 10 13 10 29 0 17 5 33 10 36 6
4 10 -16 10 -53 0 -44 -4 -61 -15 -66 -10 -4 -15 -20 -15 -54 0 -26 -6 -54
-12 -60 -7 -7 -11 -28 -9 -47 1 -20 -2 -35 -8 -35 -10 0 -46 -36 -124 -122
-13 -16 -32 -28 -41 -28 -9 0 -16 -4 -16 -10 0 -6 -38 -10 -95 -10 -52 0 -95
4 -95 9 0 5 -11 12 -25 15 -14 4 -32 17 -40 30 -9 13 -41 50 -71 81 -30 32
-53 64 -50 70 2 7 -1 21 -8 31 -7 11 -16 44 -18 74 -3 30 -11 56 -17 58 -14 5
-15 112 -1 112 6 0 10 -11 10 -25 0 -15 11 -37 28 -52 26 -24 31 -25 119 -21
108 6 123 16 123 81 0 48 8 57 50 54 21 -2 25 -8 28 -39z m402 -8 c0 -27 -4
-50 -10 -50 -5 0 -10 -15 -10 -33 0 -35 -35 -87 -58 -87 -7 0 -12 13 -12 30 0
17 4 30 8 30 5 0 15 26 22 58 10 45 14 53 21 37 7 -19 8 -19 8 3 1 12 -5 22
-11 22 -9 0 -8 4 2 10 13 9 13 10 0 10 -13 0 -13 1 0 10 31 20 40 11 40 -40z"/>
<path d="M880 910 c0 -5 -22 -10 -50 -10 -38 0 -50 -4 -50 -15 0 -12 13 -15
60 -14 56 2 60 3 60 25 0 13 -4 24 -10 24 -5 0 -10 -4 -10 -10z"/>
<path d="M700 819 c0 -16 30 -43 38 -34 4 4 1 10 -5 12 -7 3 -13 11 -13 19 0
8 -4 14 -10 14 -5 0 -10 -5 -10 -11z"/>
<path d="M967 810 c-9 -11 -17 -25 -17 -30 0 -6 -41 -10 -100 -10 -60 0 -100
-4 -100 -10 0 -5 5 -10 10 -10 6 0 10 -7 10 -15 0 -12 14 -15 70 -15 69 0 69
0 115 46 43 44 55 64 37 64 -4 0 -15 -9 -25 -20z"/>
<path d="M670 1690 c0 -5 5 -10 10 -10 6 0 10 5 10 10 0 6 -4 10 -10 10 -5 0
-10 -4 -10 -10z"/>
<path d="M815 420 c-4 -6 8 -10 29 -10 20 0 36 5 36 10 0 6 -13 10 -29 10 -17
0 -33 -4 -36 -10z"/>
<path d="M803 384 c-7 -3 -13 -10 -13 -15 0 -6 -9 -19 -20 -31 -21 -23 -27
-48 -10 -48 6 0 10 -11 10 -24 0 -14 5 -28 10 -31 6 -3 10 -28 10 -56 l0 -49
55 0 55 0 0 51 c0 49 15 79 39 79 6 0 11 11 11 25 0 14 -4 25 -10 25 -5 0 -10
7 -10 15 0 8 -6 15 -13 15 -7 0 -17 10 -22 23 -7 16 -19 23 -45 24 -19 1 -41
0 -47 -3z"/>
</g>
</svg>
